# xmcd CD database file generated by Grip 3.3.1
# 
# Track frame offsets:
#       150
#       19327
#       41275
#       57915
#       79607
#       101552
#       120865
#       138545
#       161475
#       182832
#       197440
#       217565
# 
# Disc length: 3186 seconds
# 
# Revision: 7
# Processed by: cddbd v1.5.2PL0 Copyright (c) Steve Scherf et al.
# Submitted via: Grip 3.3.1
# 
DISCID=8f0c700c
DTITLE=Emmylou Harris - Wrecking Ball
DYEAR=1995
DGENRE=Country
TTITLE0=Where Will I Be
TTITLE1=Goodbye
TTITLE2=All My Tears
TTITLE3=Wrecking Ball
TTITLE4=Goin' Back To Harlan
TTITLE5=Deeper Well
TTITLE6=Every Grain Of Sand
TTITLE7=Sweet Old World
TTITLE8=May This Be Love
TTITLE9=Orphan Girl
TTITLE10=Blackhawk
TTITLE11=Waltz Across Texas Tonight
EXTD=
EXTT0=
EXTT1=
EXTT2=
EXTT3=
EXTT4=
EXTT5=
EXTT6=
EXTT7=
EXTT8=
EXTT9=
EXTT10=
EXTT11=
PLAYORDER=
